<svg width="320" height="320" viewBox="0 0 320 320" xmlns="http://www.w3.org/2000/svg" shape-rendering="crispEdges"><rect width="100%" height="100%" fill="#e1d7d5" /><path d="M1 0H0V1H1V0Z" fill="#E1D7D5"/><path d="M120 110H110V120H120V110Z" fill="#E4A499"/><path d="M150 110H120V120H150V110Z" fill="#B92B3C"/><path d="M180 110H170V120H180V110Z" fill="#E9265C"/><path d="M200 110H180V120H200V110Z" fill="#B92B3C"/><path d="M210 110H200V120H210V110Z" fill="#E4A499"/><path d="M230 110H210V120H230V110Z" fill="#CD916D"/><path d="M120 120H110V130H120V120Z" fill="#E4A499"/><path d="M180 120H170V130H180V120Z" fill="#FFE939"/><path d="M190 120H180V130H190V120Z" fill="#E9265C"/><path d="M200 120H190V130H200V120Z" fill="#B92B3C"/><path d="M210 120H200V130H210V120Z" fill="#E4A499"/><path d="M230 120H210V130H230V120Z" fill="#CD916D"/><path d="M110 130H90V140H110V130Z" fill="#CD916D"/><path d="M120 130H110V140H120V130Z" fill="#E4A499"/><path d="M150 130H120V140H150V130Z" fill="#B92B3C"/><path d="M170 130H150V140H170V130Z" fill="#FFE939"/><path d="M180 130H170V140H180V130Z" fill="#E9265C"/><path d="M200 130H180V140H200V130Z" fill="#B92B3C"/><path d="M210 130H200V140H210V130Z" fill="#E4A499"/><path d="M230 130H210V140H230V130Z" fill="#CD916D"/><path d="M120 140H110V150H120V140Z" fill="#E4A499"/><path d="M140 140H120V150H140V140Z" fill="#B92B3C"/><path d="M150 140H140V150H150V140Z" fill="#FFE939"/><path d="M200 140H170V150H200V140Z" fill="#B92B3C"/><path d="M210 140H200V150H210V140Z" fill="#E4A499"/><path d="M230 140H210V150H230V140Z" fill="#CD916D"/><path d="M120 150H110V160H120V150Z" fill="#E4A499"/><path d="M150 150H120V160H150V150Z" fill="#B92B3C"/><path d="M180 150H170V160H180V150Z" fill="#E9265C"/><path d="M200 150H180V160H200V150Z" fill="#B92B3C"/><path d="M210 150H200V160H210V150Z" fill="#E4A499"/><path d="M230 150H210V160H230V150Z" fill="#CD916D"/><path d="M120 160H110V170H120V160Z" fill="#E4A499"/><path d="M180 160H170V170H180V160Z" fill="#FFE939"/><path d="M190 160H180V170H190V160Z" fill="#E9265C"/><path d="M200 160H190V170H200V160Z" fill="#B92B3C"/><path d="M210 160H200V170H210V160Z" fill="#E4A499"/><path d="M230 160H210V170H230V160Z" fill="#CD916D"/><path d="M160 110H100V120H160V110Z" fill="#E11833"/><path d="M230 110H170V120H230V110Z" fill="#E11833"/><path d="M110 120H100V130H110V120Z" fill="#E11833"/><path d="M130 120H110V130H130V120Z" fill="white"/><path d="M150 120H130V130H150V120Z" fill="black"/><path d="M160 120H150V130H160V120Z" fill="#E11833"/><path d="M180 120H170V130H180V120Z" fill="#E11833"/><path d="M200 120H180V130H200V120Z" fill="white"/><path d="M220 120H200V130H220V120Z" fill="black"/><path d="M230 120H220V130H230V120Z" fill="#E11833"/><path d="M110 130H70V140H110V130Z" fill="#E11833"/><path d="M130 130H110V140H130V130Z" fill="white"/><path d="M150 130H130V140H150V130Z" fill="black"/><path d="M180 130H150V140H180V130Z" fill="#E11833"/><path d="M200 130H180V140H200V130Z" fill="white"/><path d="M220 130H200V140H220V130Z" fill="black"/><path d="M230 130H220V140H230V130Z" fill="#E11833"/><path d="M80 140H70V150H80V140Z" fill="#E11833"/><path d="M110 140H100V150H110V140Z" fill="#E11833"/><path d="M130 140H110V150H130V140Z" fill="white"/><path d="M150 140H130V150H150V140Z" fill="black"/><path d="M160 140H150V150H160V140Z" fill="#E11833"/><path d="M180 140H170V150H180V140Z" fill="#E11833"/><path d="M200 140H180V150H200V140Z" fill="white"/><path d="M220 140H200V150H220V140Z" fill="black"/><path d="M230 140H220V150H230V140Z" fill="#E11833"/><path d="M80 150H70V160H80V150Z" fill="#E11833"/><path d="M110 150H100V160H110V150Z" fill="#E11833"/><path d="M130 150H110V160H130V150Z" fill="white"/><path d="M150 150H130V160H150V150Z" fill="black"/><path d="M160 150H150V160H160V150Z" fill="#E11833"/><path d="M180 150H170V160H180V150Z" fill="#E11833"/><path d="M200 150H180V160H200V150Z" fill="white"/><path d="M220 150H200V160H220V150Z" fill="black"/><path d="M230 150H220V160H230V150Z" fill="#E11833"/><path d="M160 160H100V170H160V160Z" fill="#E11833"/><path d="M230 160H170V170H230V160Z" fill="#E11833"/></svg>